<svg xmlns="http://www.w3.org/2000/svg" version="1.1" xmlns:xlink="http://www.w3.org/1999/xlink" width="512" height="512" x="0" y="0" viewBox="0 0 100 100" style="enable-background:new 0 0 512 512" xml:space="preserve" fill-rule="evenodd" class=""><g><path d="m93.174 80.031-8.194-62.5a9.376 9.376 0 0 0-9.296-8.156H25.091a9.375 9.375 0 0 0-9.295 8.156l-8.195 62.5a9.374 9.374 0 0 0 9.296 10.594h66.982a9.374 9.374 0 0 0 9.295-10.594zM31.627 25.004c0 10.348 8.401 18.75 18.75 18.75 10.348 0 18.75-8.402 18.75-18.75a3.126 3.126 0 0 0-6.25 0c0 6.899-5.601 12.5-12.5 12.5s-12.5-5.601-12.5-12.5a3.126 3.126 0 0 0-6.25 0z" fill="#000000" opacity="1" data-original="#000000" class=""/></g></svg>